<svg width="77" height="76" viewBox="0 0 77 76" fill="none" xmlns="http://www.w3.org/2000/svg">
<g id="icon_logo">
<g id="Vector 1">
<path d="M17.98 31.1599H38.88V20.8999V10.6399L17.98 31.1599Z" fill="#00FCF9"/>
<path d="M59.3457 31.1599L52.2886 10.6399H38.88L49.1129 20.8999L59.3457 31.1599Z" fill="#08F0E2"/>
<path d="M38.5543 65.4142L59.3457 31.1599H38.88L38.5543 65.4142Z" fill="#00FCF9"/>
<path d="M17.98 31.1599L38.88 10.6399H25.1457L17.98 31.1599Z" fill="#08F1DE"/>
<path fill-rule="evenodd" clip-rule="evenodd" d="M38.88 31.1599L38.5543 65.4142L17.98 31.1599H38.88Z" fill="#08F1DE"/>
<path d="M38.88 31.1599H59.3457L49.1129 20.8999L38.88 10.6399V20.8999V31.1599Z" fill="#03FFFE"/>
<path fill-rule="evenodd" clip-rule="evenodd" d="M17.98 31.1599L38.5543 65.4142L4.08289 31.1599H17.98Z" fill="#03FFFE"/>
<path d="M17.98 31.1599L25.1457 10.6399L4.08289 31.1599H17.98Z" fill="#00FCF9"/>
<path d="M17.98 31.1599L25.1457 10.6399L4.08289 31.1599H17.98Z" fill="black" fill-opacity="0.1"/>
<path fill-rule="evenodd" clip-rule="evenodd" d="M72.8629 31.1599L38.5543 65.4142L59.3457 31.1599H72.8629Z" fill="#00FCF9"/>
<path d="M72.8629 31.1599L52.2886 10.6399L59.3457 31.1599H72.8629Z" fill="#00FCF9"/>
<path d="M72.8629 31.1599L52.2886 10.6399L59.3457 31.1599H72.8629Z" fill="black" fill-opacity="0.1"/>
<path d="M38.5543 65.4142L72.8629 31.1599M38.5543 65.4142L59.3457 31.1599M38.5543 65.4142L38.88 31.1599M38.5543 65.4142L17.98 31.1599M38.5543 65.4142L4.08289 31.1599M72.8629 31.1599L52.2886 10.6399M72.8629 31.1599H59.3457M52.2886 10.6399L59.3457 31.1599M52.2886 10.6399H38.88M59.3457 31.1599H38.88M59.3457 31.1599L49.1129 20.8999L38.88 10.6399M38.88 10.6399L17.98 31.1599M38.88 10.6399H25.1457M38.88 10.6399V20.8999V31.1599M38.88 31.1599H17.98M17.98 31.1599L25.1457 10.6399M17.98 31.1599H4.08289M25.1457 10.6399L4.08289 31.1599" stroke="black" stroke-opacity="0.09"/>
</g>
</g>
</svg>
