<svg width="44" height="45" viewBox="0 0 44 45" fill="none" xmlns="http://www.w3.org/2000/svg">
<g id="Layer 2">
<g id="Layer 1">
<path id="Vector" d="M32.0804 26.4866C31.5344 26.2125 28.8418 24.8861 28.34 24.7048C27.8382 24.5214 27.4735 24.4307 27.1087 24.979C26.744 25.525 25.6939 26.7607 25.3734 27.1255C25.0551 27.4902 24.7345 27.5344 24.1885 27.2603C22.5749 26.6179 21.0855 25.6993 19.7872 24.5457C18.5897 23.4388 17.5632 22.1605 16.741 20.7523C16.4226 20.204 16.7078 19.9078 16.9819 19.6359C17.2273 19.3905 17.5301 18.9971 17.8021 18.6765C18.0273 18.3998 18.2119 18.0924 18.3503 17.7635C18.4231 17.6124 18.457 17.4455 18.4489 17.2779C18.4408 17.1104 18.391 16.9475 18.3039 16.8041C18.1668 16.53 17.0725 13.8353 16.6172 12.7388C16.1728 11.6733 15.7219 11.817 15.3836 11.7993C15.0653 11.7838 14.7006 11.7794 14.3358 11.7794C14.0583 11.7871 13.7855 11.8522 13.5344 11.9705C13.2833 12.0889 13.0594 12.2579 12.8768 12.4669C12.2579 13.053 11.7678 13.7616 11.4379 14.5476C11.1079 15.3335 10.9452 16.1795 10.9602 17.0318C11.1377 19.097 11.9145 21.0655 13.1951 22.6954C15.5426 26.2148 18.7651 29.0632 22.546 30.9609C23.5659 31.399 24.6078 31.7842 25.6674 32.1148C26.7845 32.454 27.9654 32.5274 29.116 32.3292C29.878 32.1749 30.5997 31.8641 31.2355 31.4167C31.8713 30.9692 32.4074 30.3947 32.8099 29.7296C33.169 28.9115 33.2797 28.0059 33.1282 27.1255C32.9934 26.8956 32.6286 26.7607 32.0804 26.4866ZM37.5892 6.41646C33.8311 2.6592 28.8356 0.395665 23.5328 0.0472627C18.2301 -0.30114 12.9814 1.28934 8.76393 4.52258C4.54649 7.75583 1.6477 12.4115 0.607241 17.6229C-0.433215 22.8342 0.455567 28.2461 3.10812 32.851L0 44.2024L11.6146 41.1584C14.8269 42.9076 18.4263 43.8241 22.084 43.8244H22.0928C26.4259 43.8222 30.661 42.5358 34.2632 40.1276C37.8654 37.7195 40.673 34.2977 42.3313 30.2946C43.9896 26.2914 44.4242 21.8866 43.5802 17.6366C42.7361 13.3866 40.6514 9.48211 37.5892 6.41644V6.41646ZM31.7687 37.3407C28.8687 39.1584 25.5155 40.1229 22.0928 40.1238H22.084C18.8231 40.1237 15.6224 39.2463 12.8171 37.5838L12.1517 37.1904L5.25904 38.9986L7.09827 32.2784L6.6672 31.5887C4.75402 28.5377 3.7885 24.9879 3.89275 21.3882C3.99699 17.7884 5.16631 14.3005 7.25284 11.3653C9.33937 8.43013 12.2494 6.17958 15.615 4.89825C18.9805 3.61692 22.6505 3.36234 26.1607 4.16672C29.671 4.97109 32.8639 6.79828 35.3357 9.41725C37.8075 12.0362 39.4472 15.3293 40.0475 18.8802C40.6477 22.431 40.1816 26.0801 38.708 29.3661C37.2344 32.652 34.8195 35.4272 31.7687 37.3407Z" fill="#08F1DE"/>
</g>
</g>
</svg>
