<svg width="44" height="44" viewBox="0 0 44 44" fill="none" xmlns="http://www.w3.org/2000/svg">
<g id="u:angle-down">
<path id="Vector" d="M31.1667 16.8117C30.8232 16.4702 30.3585 16.2785 29.8742 16.2785C29.3898 16.2785 28.9252 16.4702 28.5817 16.8117L22 23.3017L15.51 16.8117C15.1665 16.4702 14.7018 16.2785 14.2175 16.2785C13.7331 16.2785 13.2685 16.4702 12.925 16.8117C12.7532 16.9821 12.6168 17.1849 12.5237 17.4083C12.4306 17.6317 12.3827 17.8713 12.3827 18.1133C12.3827 18.3553 12.4306 18.595 12.5237 18.8184C12.6168 19.0418 12.7532 19.2446 12.925 19.415L20.6983 27.1883C20.8688 27.3602 21.0715 27.4965 21.2949 27.5896C21.5183 27.6827 21.758 27.7306 22 27.7306C22.242 27.7306 22.4816 27.6827 22.705 27.5896C22.9285 27.4965 23.1312 27.3602 23.3017 27.1883L31.1667 19.415C31.3385 19.2446 31.4749 19.0418 31.568 18.8184C31.661 18.595 31.709 18.3553 31.709 18.1133C31.709 17.8713 31.661 17.6317 31.568 17.4083C31.4749 17.1849 31.3385 16.9821 31.1667 16.8117Z" fill="#323533"/>
</g>
</svg>
