<svg width="44" height="44" viewBox="0 0 44 44" fill="none" xmlns="http://www.w3.org/2000/svg">
<g id="u:award">
<path id="Vector" d="M38.2616 31.625L33.2933 23.045C34.31 21.1778 34.8396 19.0844 34.8333 16.9583C34.8333 13.5547 33.4812 10.2905 31.0745 7.8838C28.6678 5.47708 25.4036 4.125 22 4.125C18.5964 4.125 15.3322 5.47708 12.9254 7.8838C10.5187 10.2905 9.16664 13.5547 9.16664 16.9583C9.16032 19.0844 9.68997 21.1778 10.7066 23.045L5.7383 31.625C5.57708 31.9042 5.49236 32.2211 5.49268 32.5435C5.493 32.8659 5.57835 33.1826 5.74012 33.4615C5.90189 33.7404 6.13436 33.9717 6.41408 34.1321C6.6938 34.2925 7.01087 34.3763 7.3333 34.375H12.595L15.2716 38.885C15.3619 39.0345 15.473 39.1703 15.6016 39.2883C15.9415 39.6159 16.3946 39.7998 16.8666 39.8017H17.1233C17.4001 39.7638 17.6645 39.6632 17.8965 39.5075C18.1284 39.3518 18.3217 39.1451 18.4616 38.9033L22 32.8167L25.5383 38.9583C25.6803 39.1967 25.8745 39.3998 26.1063 39.5522C26.3381 39.7047 26.6015 39.8025 26.8766 39.8383H27.1333C27.6117 39.8412 28.0722 39.657 28.4166 39.325C28.5399 39.2137 28.6451 39.0838 28.7283 38.94L31.405 34.43H36.6666C36.9897 34.4313 37.3073 34.3472 37.5874 34.1862C37.8675 34.0252 38.1001 33.7931 38.2616 33.5133C38.4329 33.2282 38.5235 32.9018 38.5235 32.5692C38.5235 32.2365 38.4329 31.9101 38.2616 31.625ZM16.8483 34.43L15.2166 31.6983C15.056 31.4273 14.8282 31.2023 14.5552 31.0449C14.2823 30.8876 13.9734 30.8032 13.6583 30.8H10.4866L13.1083 26.2533C14.9136 27.9929 17.189 29.1657 19.6533 29.6267L16.8483 34.43ZM22 26.125C20.187 26.125 18.4147 25.5874 16.9072 24.5801C15.3998 23.5729 14.2249 22.1413 13.5311 20.4663C12.8373 18.7913 12.6557 16.9482 13.0094 15.17C13.3631 13.3918 14.2362 11.7585 15.5182 10.4765C16.8001 9.19454 18.4335 8.3215 20.2116 7.9678C21.9898 7.6141 23.8329 7.79563 25.5079 8.48944C27.1829 9.18324 28.6145 10.3582 29.6218 11.8656C30.629 13.3731 31.1666 15.1453 31.1666 16.9583C31.1666 19.3895 30.2009 21.7211 28.4818 23.4401C26.7627 25.1592 24.4311 26.125 22 26.125ZM30.3416 30.8C30.0266 30.8032 29.7177 30.8876 29.4447 31.0449C29.1718 31.2023 28.944 31.4273 28.7833 31.6983L27.1516 34.43L24.365 29.5717C26.8207 29.1012 29.0876 27.9296 30.8916 26.1983L33.5133 30.745L30.3416 30.8Z" fill="#08F1DE"/>
</g>
</svg>
