<svg width="45" height="44" viewBox="0 0 45 44" fill="none" xmlns="http://www.w3.org/2000/svg">
<g id="u:facebook">
<path id="Vector" d="M38.8166 3.66669H6.18329C5.64844 3.66669 5.13549 3.87916 4.75729 4.25736C4.3791 4.63555 4.16663 5.1485 4.16663 5.68335V38.3167C4.16663 38.5815 4.21879 38.8438 4.32014 39.0884C4.42148 39.3331 4.57003 39.5554 4.75729 39.7427C4.94456 39.93 5.16687 40.0785 5.41155 40.1798C5.65622 40.2812 5.91846 40.3334 6.18329 40.3334H23.7466V26.125H18.98V20.625H23.7466V16.5C23.6479 15.5316 23.7622 14.5533 24.0816 13.6337C24.401 12.7141 24.9177 11.8755 25.5955 11.1768C26.2733 10.478 27.0957 9.93603 28.0051 9.58879C28.9146 9.24155 29.889 9.09748 30.86 9.16669C32.2869 9.15791 33.7131 9.23136 35.1316 9.38669V14.3367H32.2166C29.9066 14.3367 29.4666 15.4367 29.4666 17.0317V20.57H34.9666L34.2516 26.07H29.4666V40.3334H38.8166C39.0815 40.3334 39.3437 40.2812 39.5884 40.1798C39.833 40.0785 40.0554 39.93 40.2426 39.7427C40.4299 39.5554 40.5784 39.3331 40.6798 39.0884C40.7811 38.8438 40.8333 38.5815 40.8333 38.3167V5.68335C40.8333 5.41852 40.7811 5.15628 40.6798 4.91161C40.5784 4.66694 40.4299 4.44462 40.2426 4.25736C40.0554 4.07009 39.833 3.92154 39.5884 3.8202C39.3437 3.71885 39.0815 3.66669 38.8166 3.66669Z" fill="#323533"/>
</g>
</svg>
