<svg width="44" height="44" viewBox="0 0 44 44" fill="none" xmlns="http://www.w3.org/2000/svg">
<g id="u:fast-mail">
<path id="Vector" d="M8.78125 19.25H5.11458C4.62835 19.25 4.16204 19.4431 3.81822 19.787C3.4744 20.1308 3.28125 20.5971 3.28125 21.0833C3.28125 21.5696 3.4744 22.0359 3.81822 22.3797C4.16204 22.7235 4.62835 22.9167 5.11458 22.9167H8.78125C9.26748 22.9167 9.7338 22.7235 10.0776 22.3797C10.4214 22.0359 10.6146 21.5696 10.6146 21.0833C10.6146 20.5971 10.4214 20.1308 10.0776 19.787C9.7338 19.4431 9.26748 19.25 8.78125 19.25ZM39.5446 14.0433V13.9333C39.0193 13.2913 38.3556 12.7764 37.6032 12.4271C36.8507 12.0779 36.029 11.9034 35.1996 11.9167H20.6613C19.3141 11.9046 18.0094 12.3873 16.9946 13.2733C16.0468 14.1085 15.4236 15.2509 15.2346 16.5L13.6213 25.6667C13.4825 26.4583 13.519 27.2707 13.728 28.0467C13.9371 28.8227 14.3136 29.5435 14.8313 30.1583C15.3462 30.7711 15.9886 31.2641 16.7137 31.6029C17.4389 31.9417 18.2292 32.1182 19.0296 32.12H33.5862C34.8939 32.1398 36.1657 31.6929 37.1737 30.8597C38.1817 30.0265 38.8597 28.8613 39.0863 27.5733L40.6996 18.4067C40.8266 17.639 40.7894 16.8532 40.5903 16.1011C40.3912 15.3489 40.0348 14.6475 39.5446 14.0433ZM34.5213 15.5833L28.2879 20.6433C27.9194 20.9404 27.4502 21.0833 26.9787 21.0423C26.5071 21.0013 26.0697 20.7795 25.7579 20.4233L21.4863 15.5833H34.5213ZM35.4013 26.895C35.327 27.3254 35.1016 27.7153 34.7655 27.9942C34.4293 28.2732 34.0047 28.423 33.5679 28.4167H19.0296C18.7633 28.4144 18.5008 28.3542 18.2602 28.2402C18.0195 28.1263 17.8066 27.9612 17.6363 27.7567C17.4654 27.5531 17.3409 27.3149 17.2712 27.0585C17.2016 26.8021 17.1885 26.5336 17.2329 26.2717L18.6996 17.9667L23.0079 22.8433C23.9457 23.9092 25.2593 24.5711 26.6739 24.6907C28.0885 24.8103 29.4945 24.3783 30.5979 23.485L36.9046 18.3333L35.4013 26.895ZM10.6146 11.9167H5.11458C4.62835 11.9167 4.16204 12.1098 3.81822 12.4536C3.4744 12.7974 3.28125 13.2638 3.28125 13.75C3.28125 14.2362 3.4744 14.7025 3.81822 15.0464C4.16204 15.3902 4.62835 15.5833 5.11458 15.5833H10.6146C11.1008 15.5833 11.5671 15.3902 11.9109 15.0464C12.2548 14.7025 12.4479 14.2362 12.4479 13.75C12.4479 13.2638 12.2548 12.7974 11.9109 12.4536C11.5671 12.1098 11.1008 11.9167 10.6146 11.9167Z" fill="#08F1DE"/>
</g>
</svg>
