<svg width="45" height="44" viewBox="0 0 45 44" fill="none" xmlns="http://www.w3.org/2000/svg">
<g id="u:instagram-alt">
<path id="Vector" d="M22.5 17.4534C21.6007 17.4534 20.7217 17.72 19.974 18.2196C19.2263 18.7192 18.6435 19.4293 18.2994 20.2601C17.9553 21.0909 17.8652 22.0051 18.0407 22.887C18.2161 23.769 18.6491 24.5791 19.285 25.215C19.9208 25.8509 20.731 26.2839 21.6129 26.4593C22.4949 26.6348 23.4091 26.5447 24.2399 26.2006C25.0707 25.8565 25.7808 25.2737 26.2804 24.526C26.78 23.7783 27.0466 22.8993 27.0466 22C27.0466 21.4029 26.929 20.8117 26.7005 20.2601C26.472 19.7085 26.1371 19.2072 25.7149 18.785C25.2927 18.3628 24.7915 18.0279 24.2399 17.7994C23.6883 17.571 23.097 17.4534 22.5 17.4534ZM40.705 12.9617C40.6953 11.5459 40.4346 10.1431 39.935 8.81835C39.567 7.849 38.9976 6.96869 38.2645 6.23553C37.5313 5.50236 36.651 4.933 35.6816 4.56502C34.3569 4.06537 32.9541 3.80467 31.5383 3.79502C29.1733 3.66669 28.4766 3.66669 22.5 3.66669C16.5233 3.66669 15.8266 3.66669 13.4616 3.79502C12.0458 3.80467 10.643 4.06537 9.31829 4.56502C8.34894 4.933 7.46863 5.50236 6.73547 6.23553C6.0023 6.96869 5.43294 7.849 5.06496 8.81835C4.56531 10.1431 4.3046 11.5459 4.29496 12.9617C4.16663 15.3267 4.16663 16.0234 4.16663 22C4.16663 27.9767 4.16663 28.6734 4.29496 31.0384C4.31469 32.4591 4.57505 33.8663 5.06496 35.2C5.43131 36.1649 6.0002 37.0401 6.73329 37.7667C7.46331 38.5042 8.34551 39.0736 9.31829 39.435C10.643 39.9347 12.0458 40.1954 13.4616 40.205C15.8266 40.3334 16.5233 40.3334 22.5 40.3334C28.4766 40.3334 29.1733 40.3334 31.5383 40.205C32.9541 40.1954 34.3569 39.9347 35.6816 39.435C36.6544 39.0736 37.5366 38.5042 38.2666 37.7667C38.9997 37.0401 39.5686 36.1649 39.935 35.2C40.4341 33.8688 40.6948 32.46 40.705 31.0384C40.8333 28.6734 40.8333 27.9767 40.8333 22C40.8333 16.0234 40.8333 15.3267 40.705 12.9617ZM36.0483 27.6284C35.9895 28.7597 35.748 29.8741 35.3333 30.9284C34.9774 31.8078 34.4483 32.6067 33.7774 33.2775C33.1066 33.9483 32.3077 34.4774 31.4283 34.8334C30.3641 35.2249 29.2435 35.4416 28.11 35.475C26.6616 35.475 26.2766 35.475 22.5 35.475C18.7233 35.475 18.3383 35.475 16.89 35.475C15.7565 35.4416 14.6359 35.2249 13.5716 34.8334C12.6625 34.4955 11.8415 33.9565 11.17 33.2567C10.5057 32.599 9.99267 31.8044 9.66663 30.9284C9.27348 29.8652 9.06274 28.7433 9.04329 27.61C9.04329 26.1617 9.04329 25.7767 9.04329 22C9.04329 18.2234 9.04329 17.8384 9.04329 16.39C9.06274 15.2567 9.27348 14.1348 9.66663 13.0717C10.0045 12.1625 10.5435 11.3415 11.2433 10.67C11.9039 10.0093 12.6976 9.49686 13.5716 9.16669C14.6359 8.7751 15.7565 8.5584 16.89 8.52502C18.3383 8.52502 18.7233 8.52502 22.5 8.52502C26.2766 8.52502 26.6616 8.52502 28.11 8.52502C29.2435 8.5584 30.3641 8.7751 31.4283 9.16669C32.3374 9.50454 33.1585 10.0435 33.83 10.7434C34.4942 11.4011 35.0072 12.1956 35.3333 13.0717C35.7249 14.1359 35.9416 15.2565 35.975 16.39C35.975 17.8384 35.975 18.2234 35.975 22C35.975 25.7767 36.1033 26.1617 36.0483 27.61V27.6284ZM33.115 13.9884C32.8967 13.3962 32.5525 12.8584 32.1062 12.4121C31.6599 11.9658 31.1222 11.6216 30.53 11.4034C29.7168 11.1215 28.8604 10.985 28 11C26.57 11 26.1666 11 22.5 11C18.8333 11 18.43 11 17 11C16.1351 11.0085 15.2786 11.1698 14.47 11.4767C13.8868 11.6851 13.3547 12.0152 12.909 12.4451C12.4633 12.875 12.1142 13.3948 11.885 13.97C11.6187 14.7865 11.4886 15.6413 11.5 16.5C11.5 17.93 11.5 18.3334 11.5 22C11.5 25.6667 11.5 26.07 11.5 27.5C11.5181 28.3639 11.6792 29.2188 11.9766 30.03C12.1949 30.6222 12.5391 31.16 12.9854 31.6063C13.4316 32.0526 13.9694 32.3967 14.5616 32.615C15.3438 32.9027 16.167 33.0636 17 33.0917C18.43 33.0917 18.8333 33.0917 22.5 33.0917C26.1666 33.0917 26.57 33.0917 28 33.0917C28.8648 33.0832 29.7213 32.9219 30.53 32.615C31.1222 32.3967 31.6599 32.0526 32.1062 31.6063C32.5525 31.16 32.8967 30.6222 33.115 30.03C33.4218 29.2214 33.5832 28.3649 33.5916 27.5C33.5916 26.07 33.5916 25.6667 33.5916 22C33.5916 18.3334 33.5916 17.93 33.5916 16.5C33.5922 15.6343 33.4305 14.7762 33.115 13.97V13.9884ZM22.5 29.0034C21.5811 29.0034 20.6713 28.8221 19.8227 28.4699C18.974 28.1177 18.2032 27.6016 17.5543 26.951C16.9055 26.3005 16.3913 25.5283 16.0414 24.6787C15.6914 23.8291 15.5125 22.9188 15.515 22C15.515 20.6141 15.9262 19.2594 16.6965 18.1073C17.4669 16.9552 18.5617 16.0576 19.8425 15.528C21.1232 14.9985 22.5323 14.8609 23.8913 15.1326C25.2503 15.4043 26.4982 16.0732 27.4769 17.0544C28.4556 18.0357 29.1211 19.2853 29.3893 20.645C29.6574 22.0047 29.5161 23.4134 28.9833 24.6928C28.4504 25.9722 27.5499 27.0647 26.3958 27.832C25.2417 28.5993 23.8859 29.007 22.5 29.0034ZM29.8333 16.3717C29.428 16.3288 29.053 16.1374 28.7804 15.8345C28.5078 15.5315 28.357 15.1384 28.357 14.7309C28.357 14.3233 28.5078 13.9302 28.7804 13.6272C29.053 13.3243 29.428 13.1329 29.8333 13.09C30.2386 13.1329 30.6136 13.3243 30.8862 13.6272C31.1588 13.9302 31.3096 14.3233 31.3096 14.7309C31.3096 15.1384 31.1588 15.5315 30.8862 15.8345C30.6136 16.1374 30.2386 16.3288 29.8333 16.3717Z" fill="#323533"/>
</g>
</svg>
