<svg width="25" height="25" viewBox="0 0 25 25" fill="none" xmlns="http://www.w3.org/2000/svg">
<g id="u:search">
<path id="Vector" d="M22.21 20.7899L18.5 17.1099C19.9401 15.3143 20.6375 13.0352 20.4488 10.7412C20.2601 8.44721 19.1997 6.31269 17.4855 4.77655C15.7714 3.24041 13.5338 2.41941 11.2329 2.48237C8.93207 2.54534 6.74275 3.48747 5.11517 5.11505C3.48759 6.74263 2.54546 8.93194 2.4825 11.2328C2.41954 13.5337 3.24053 15.7713 4.77667 17.4854C6.31281 19.1996 8.44733 20.26 10.7413 20.4487C13.0353 20.6374 15.3144 19.94 17.11 18.4999L20.79 22.1799C20.883 22.2736 20.9936 22.348 21.1154 22.3988C21.2373 22.4496 21.368 22.4757 21.5 22.4757C21.632 22.4757 21.7627 22.4496 21.8846 22.3988C22.0065 22.348 22.1171 22.2736 22.21 22.1799C22.3903 21.9934 22.491 21.7442 22.491 21.4849C22.491 21.2256 22.3903 20.9764 22.21 20.7899ZM11.5 18.4999C10.1156 18.4999 8.76218 18.0894 7.61103 17.3202C6.45989 16.551 5.56268 15.4578 5.03287 14.1787C4.50306 12.8996 4.36443 11.4921 4.63453 10.1343C4.90463 8.77641 5.57131 7.52912 6.55028 6.55016C7.52925 5.57119 8.77653 4.9045 10.1344 4.63441C11.4923 4.36431 12.8997 4.50293 14.1788 5.03275C15.4579 5.56256 16.5511 6.45977 17.3203 7.61091C18.0895 8.76206 18.5 10.1154 18.5 11.4999C18.5 13.3564 17.7625 15.1369 16.4498 16.4497C15.137 17.7624 13.3565 18.4999 11.5 18.4999Z" fill="white"/>
</g>
</svg>
