<svg width="61" height="60" viewBox="0 0 61 60" fill="none" xmlns="http://www.w3.org/2000/svg">
<g id="u:shopping-bag">
<path id="Vector" d="M48 17.5H40.5V15C40.5 12.3478 39.4464 9.8043 37.5711 7.92893C35.6957 6.05357 33.1522 5 30.5 5C27.8478 5 25.3043 6.05357 23.4289 7.92893C21.5536 9.8043 20.5 12.3478 20.5 15V17.5H13C12.337 17.5 11.7011 17.7634 11.2322 18.2322C10.7634 18.7011 10.5 19.337 10.5 20V47.5C10.5 49.4891 11.2902 51.3968 12.6967 52.8033C14.1032 54.2098 16.0109 55 18 55H43C44.9891 55 46.8968 54.2098 48.3033 52.8033C49.7098 51.3968 50.5 49.4891 50.5 47.5V20C50.5 19.337 50.2366 18.7011 49.7678 18.2322C49.2989 17.7634 48.663 17.5 48 17.5ZM25.5 15C25.5 13.6739 26.0268 12.4021 26.9645 11.4645C27.9021 10.5268 29.1739 10 30.5 10C31.8261 10 33.0979 10.5268 34.0355 11.4645C34.9732 12.4021 35.5 13.6739 35.5 15V17.5H25.5V15ZM45.5 47.5C45.5 48.163 45.2366 48.7989 44.7678 49.2678C44.2989 49.7366 43.663 50 43 50H18C17.337 50 16.7011 49.7366 16.2322 49.2678C15.7634 48.7989 15.5 48.163 15.5 47.5V22.5H20.5V25C20.5 25.663 20.7634 26.2989 21.2322 26.7678C21.7011 27.2366 22.337 27.5 23 27.5C23.663 27.5 24.2989 27.2366 24.7678 26.7678C25.2366 26.2989 25.5 25.663 25.5 25V22.5H35.5V25C35.5 25.663 35.7634 26.2989 36.2322 26.7678C36.7011 27.2366 37.337 27.5 38 27.5C38.663 27.5 39.2989 27.2366 39.7678 26.7678C40.2366 26.2989 40.5 25.663 40.5 25V22.5H45.5V47.5Z" fill="#323533"/>
</g>
</svg>
