<svg width="45" height="44" viewBox="0 0 45 44" fill="none" xmlns="http://www.w3.org/2000/svg">
<g id="u:youtube">
<path id="Vector" d="M42.6666 17.8016C42.7573 15.1775 42.1834 12.573 40.9983 10.23C40.1942 9.26857 39.0783 8.61977 37.845 8.39664C32.7438 7.93377 27.6214 7.74405 22.5 7.8283C17.3972 7.74023 12.2933 7.92382 7.20997 8.3783C6.20497 8.56112 5.27492 9.03251 4.5333 9.73497C2.8833 11.2566 2.69997 13.86 2.51663 16.06C2.25064 20.0155 2.25064 23.9844 2.51663 27.94C2.56967 29.1782 2.75404 30.4073 3.06663 31.6066C3.28769 32.5326 3.73493 33.3893 4.3683 34.1C5.11496 34.8396 6.06667 35.3378 7.09997 35.53C11.0525 36.0179 15.035 36.22 19.0166 36.135C25.4333 36.2266 31.0616 36.135 37.7166 35.6216C38.7753 35.4413 39.7538 34.9425 40.5216 34.1916C41.0349 33.6781 41.4183 33.0496 41.64 32.3583C42.2956 30.3464 42.6177 28.2408 42.5933 26.125C42.6666 25.0983 42.6666 18.9016 42.6666 17.8016ZM18.3566 27.225V15.8766L29.21 21.5783C26.1666 23.265 22.1516 25.1716 18.3566 27.225Z" fill="#323533"/>
</g>
</svg>
