<svg width="25" height="24" viewBox="0 0 25 24" fill="none" xmlns="http://www.w3.org/2000/svg">
<g id="u:shopping-bag">
<path id="Vector" d="M19.5 7H16.5V6C16.5 4.93913 16.0786 3.92172 15.3284 3.17157C14.5783 2.42143 13.5609 2 12.5 2C11.4391 2 10.4217 2.42143 9.67157 3.17157C8.92143 3.92172 8.5 4.93913 8.5 6V7H5.5C5.23478 7 4.98043 7.10536 4.79289 7.29289C4.60536 7.48043 4.5 7.73478 4.5 8V19C4.5 19.7956 4.81607 20.5587 5.37868 21.1213C5.94129 21.6839 6.70435 22 7.5 22H17.5C18.2956 22 19.0587 21.6839 19.6213 21.1213C20.1839 20.5587 20.5 19.7956 20.5 19V8C20.5 7.73478 20.3946 7.48043 20.2071 7.29289C20.0196 7.10536 19.7652 7 19.5 7ZM10.5 6C10.5 5.46957 10.7107 4.96086 11.0858 4.58579C11.4609 4.21071 11.9696 4 12.5 4C13.0304 4 13.5391 4.21071 13.9142 4.58579C14.2893 4.96086 14.5 5.46957 14.5 6V7H10.5V6ZM18.5 19C18.5 19.2652 18.3946 19.5196 18.2071 19.7071C18.0196 19.8946 17.7652 20 17.5 20H7.5C7.23478 20 6.98043 19.8946 6.79289 19.7071C6.60536 19.5196 6.5 19.2652 6.5 19V9H8.5V10C8.5 10.2652 8.60536 10.5196 8.79289 10.7071C8.98043 10.8946 9.23478 11 9.5 11C9.76522 11 10.0196 10.8946 10.2071 10.7071C10.3946 10.5196 10.5 10.2652 10.5 10V9H14.5V10C14.5 10.2652 14.6054 10.5196 14.7929 10.7071C14.9804 10.8946 15.2348 11 15.5 11C15.7652 11 16.0196 10.8946 16.2071 10.7071C16.3946 10.5196 16.5 10.2652 16.5 10V9H18.5V19Z" fill="white"/>
</g>
</svg>
